<?xml version="1.0" encoding="UTF-8" standalone="no"?>
<!DOCTYPE svg PUBLIC "-//W3C//DTD SVG 1.1//EN" "http://www.w3.org/Graphics/SVG/1.1/DTD/svg11.dtd">
<!-- Created with Vectornator (http://vectornator.io/) -->
<svg height="100%" stroke-miterlimit="10" style="fill-rule:nonzero;clip-rule:evenodd;stroke-linecap:round;stroke-linejoin:round;" version="1.1" viewBox="0 0 1080 1080" width="100%" xml:space="preserve" xmlns="http://www.w3.org/2000/svg" xmlns:vectornator="http://vectornator.io" xmlns:xlink="http://www.w3.org/1999/xlink">
<defs/>
<g id="Layer-1" vectornator:layerName="Layer 1">
<path d="M324.667 274.667L793.333 274.667L793.333 1021.33L324.667 1021.33L324.667 274.667Z" fill="#a8545b" fill-rule="nonzero" opacity="1" stroke="#f7c25b" stroke-linecap="butt" stroke-linejoin="round" stroke-opacity="0" stroke-width="10" vectornator:layerName="Rectangle 1"/>
<path d="M540 605L931.333 605L931.333 691L540 691L540 605Z" fill="#f7c25b" fill-rule="nonzero" opacity="1" stroke="#f7c25b" stroke-linecap="butt" stroke-linejoin="round" stroke-width="10" vectornator:layerName="Rectangle 2"/>
<path d="M931.333 530.667L931.333 765.333" fill="none" opacity="1" stroke="#f7c25b" stroke-linecap="butt" stroke-linejoin="round" stroke-width="10" vectornator:layerName="Line 1"/>
<path d="M931.333 761.333L1050 648" fill="none" opacity="1" stroke="#f7c25b" stroke-linecap="butt" stroke-linejoin="round" stroke-width="10" vectornator:layerName="Line 2"/>
<path d="M931.333 540L1050 648" fill="none" opacity="1" stroke="#f7c25b" stroke-linecap="butt" stroke-linejoin="round" stroke-width="10" vectornator:layerName="Line 3"/>
<path d="M957.333 657.333C957.333 653.886 959.569 637.226 954.667 636C952.337 635.418 953.333 644.083 953.333 645.333C953.333 651.111 953.333 656.889 953.333 662.667C953.333 665.111 953.333 667.556 953.333 670C953.333 670.667 953.333 672 953.333 672C953.333 672 953.333 670.667 953.333 670C953.333 667.333 953.333 664.667 953.333 662C953.333 655.281 953.555 648.662 952.667 642C952.303 639.275 952.03 636.387 950.667 634C950.043 632.909 948.982 630.548 948 631.333C943.485 634.946 945.333 651.263 945.333 656.667C945.333 659.121 945.729 661.56 946 664C946.172 665.546 946 668.667 946 668.667C946 668.667 946 663.778 946 661.333C946 655.556 946 649.778 946 644C946 641.778 946 639.556 946 637.333C946 636.667 946.471 634.862 946 635.333C942.843 638.49 943.629 646.154 943.333 650C942.811 656.788 941.333 663.158 941.333 670C941.333 670.889 941.333 668.222 941.333 667.333C941.333 666 941.238 664.663 941.333 663.333C941.587 659.78 942 656.229 942 652.667C942 644.667 942 636.667 942 628.667C942 627.111 942.696 625.391 942 624C941.642 623.283 940.92 625.24 940.667 626C940.239 627.282 940.191 628.662 940 630C939.433 633.966 939.333 637.994 939.333 642C939.333 650.889 939.333 659.778 939.333 668.667C939.333 671.111 938.24 673.814 939.333 676C939.556 676.444 939.938 675.16 940 674.667C940.165 673.344 940 672 940 670.667C940 668.444 939.894 666.22 940 664C940.244 658.875 941.12 653.793 941.333 648.667C941.834 636.655 942.134 624.656 943.333 612.667C943.624 609.758 944.667 606.923 944.667 604C944.667 603.084 944.101 605.756 944 606.667C943.877 607.771 944 608.889 944 610C944 613.333 944 616.667 944 620C944 627.623 944.161 635.086 944.667 642.667C944.77 644.219 944.667 645.778 944.667 647.333C944.667 648 944.667 650 944.667 649.333C944.667 636.53 945.333 623.555 945.333 610.667C945.333 609.844 945.704 599.852 944.667 599.333C944.222 599.111 944.185 600.205 944 600.667C942.834 603.581 942.44 606.922 942 610C940.867 617.931 941.333 626.004 941.333 634C941.333 636.667 941.333 639.333 941.333 642C941.333 642.667 941.333 644.667 941.333 644C941.333 639.952 942.389 636.167 942.667 632C943.289 622.672 943.451 613.326 944 604C944.086 602.544 945.582 591.194 944 590.667C941.762 589.921 942.048 599.419 942 600C941.242 609.099 941.333 618.16 941.333 627.333C941.333 628.889 941.333 630.444 941.333 632C941.333 632.667 941.333 634.667 941.333 634C941.333 614.222 941.333 594.444 941.333 574.667C941.333 574.222 941.333 575.556 941.333 576C941.333 577.333 941.333 578.667 941.333 580C941.333 581.333 941.333 582.667 941.333 584C941.333 590.444 941.333 596.889 941.333 603.333C941.333 605.778 941.333 608.222 941.333 610.667C941.333 611.111 941.193 612.422 941.333 612C944.04 603.88 944.019 594.418 944.667 586C944.785 584.465 945.391 578.782 944.667 577.333C944.444 576.889 944.222 578.222 944 578.667C943.493 579.68 944.135 581.199 943.333 582C942.982 582.351 942.764 581.154 942.667 580.667C942.033 577.496 943.967 574.504 943.333 571.333C941.986 564.597 939.333 556.159 939.333 549.333C939.333 548.889 939.333 550.222 939.333 550.667C939.333 551.333 939.333 552 939.333 552.667C939.333 554.312 939.101 556.372 939.333 558C940.344 565.072 941.409 572.956 940 580C939.927 580.364 938.743 585.372 938.667 585.333C937.803 584.901 938 570.93 938 569.333C938 567.556 938 565.778 938 564C938 563.111 937.111 561.333 938 561.333C939.479 561.333 944.226 575.786 945.333 578C945.649 578.631 947.6 581.2 948.667 580.667C949.7 580.15 946.901 577.251 946.667 576.667C946.274 575.686 943.624 568 945.333 568C947.198 568 950.962 578.811 951.333 580.667C951.464 581.32 951.203 582.013 951.333 582.667C951.431 583.154 951.778 584.444 952 584C952.602 582.796 949.476 570.667 948.667 570.667C948.222 570.667 948.502 571.587 948.667 572C949.681 574.536 952.388 576.517 954 578.667C954.298 579.064 955.018 580.351 954.667 580C952.609 577.942 951.291 575.25 950 572.667C949.556 571.778 948.667 569.006 948.667 570C948.667 571.506 952.594 583.382 954.667 582C957.926 579.827 953.697 574.384 952.667 572.667C952.254 571.98 951.959 571.167 951.333 570.667C950.785 570.228 949.333 569.297 949.333 570C949.333 570.211 958.643 577.357 958.667 577.333C959.509 576.491 951.729 563.739 949.333 567.333C948.406 568.725 952.157 572.667 953.333 572.667C954.327 572.667 952.369 570.923 952 570C951.671 569.179 948.171 562.581 948 562.667C945.32 564.007 952.384 579.435 953.333 581.333C954.182 583.032 956.913 585.613 955.333 586.667C951.843 588.993 944.906 574.05 947.333 581.333C947.712 582.469 948.258 583.542 948.667 584.667C949.147 585.988 949.556 587.333 950 588.667C950.667 590.667 951.271 592.688 952 594.667C954.38 601.128 957.042 607.508 959.333 614C959.872 615.526 960.241 617.106 960.667 618.667C961.149 620.435 962 622.168 962 624C962 624.497 961.685 625.685 961.333 625.333C960.862 624.862 961.416 623.995 961.333 623.333C960.971 620.433 960.573 617.533 960 614.667C958.391 606.623 956.61 598.496 954 590.667C953.764 589.958 951.831 582.669 949.333 586C948.133 587.6 949.333 590 949.333 592C949.333 594 949.233 596.002 949.333 598C949.456 600.451 949.787 602.888 950 605.333C951.078 617.733 953.448 629.743 955.333 642C956.08 646.852 956.34 651.768 956.667 656.667C956.741 657.775 956.667 661.111 956.667 660C956.667 645.779 955.333 631.581 955.333 617.333C955.333 611.556 955.333 605.778 955.333 600C955.333 598.444 956.889 595.333 955.333 595.333C953.716 595.333 954.317 598.414 954 600C953.649 601.757 953.531 603.553 953.333 605.333C953.087 607.553 952.968 609.787 952.667 612C950.493 627.937 948.324 643.984 946.667 660C946.045 666.005 945.91 672.093 944.667 678C944.377 679.375 943.827 680.684 943.333 682C943.159 682.465 942.787 683.815 942.667 683.333C941.291 677.832 943.826 667.709 944.667 662.667C946.439 652.035 949.169 641.715 952 631.333C953.703 625.09 955.371 618.833 957.333 612.667C957.973 610.658 958.613 608.648 959.333 606.667C959.503 606.2 960 605.333 960 605.333C960 605.333 958.535 608.394 958 610C957.488 611.535 957.123 613.115 956.667 614.667C955.176 619.734 953.854 624.853 952.667 630C949.528 643.6 946.562 657.409 945.333 671.333C944.766 677.768 944.323 684.215 944 690.667C943.911 692.442 944 694.222 944 696C944 696.889 943.854 699.543 944 698.667C947.601 677.061 947.698 654.844 952 633.333C952.087 632.898 952.122 634.239 952 634.667C951.671 635.817 951.045 636.865 950.667 638C950.155 639.535 949.816 641.123 949.333 642.667C947.886 647.299 946.466 651.947 945.333 656.667C941.578 672.314 939.854 688.637 938.667 704.667C938.301 709.605 938.181 713.336 937.333 718C937.169 718.901 937.076 721.486 936.667 720.667C936.07 719.474 936.667 718 936.667 716.667C936.667 714 936.483 711.327 936.667 708.667C936.928 704.872 937.542 701.11 938 697.333C939.514 684.842 939.637 666.726 945.333 655.333C945.648 654.705 944.819 656.647 944.667 657.333C944.373 658.653 944.283 660.012 944 661.333C943.15 665.298 942.548 669.315 942 673.333C940.519 684.191 939.089 695.019 938.667 706C938.496 710.441 938.667 714.889 938.667 719.333C938.667 720.667 937.724 724.276 938.667 723.333C940.928 721.072 939.655 717.924 940 715.333C940.328 712.871 941.037 710.467 941.333 708C942.716 696.48 943.052 684.739 945.333 673.333C945.885 670.577 945.486 666.59 948 665.333C948.596 665.035 948.083 666.672 948 667.333C947.859 668.458 947.52 669.549 947.333 670.667C947.075 672.217 946.874 673.776 946.667 675.333C946.164 679.104 945.898 682.905 945.333 686.667C943.42 699.419 939.333 713.11 939.333 726C939.333 727.571 939.87 722.899 940 721.333C940.129 719.783 939.903 718.219 940 716.667C940.48 708.987 941.964 701.533 943.333 694C943.497 693.099 943.084 691.333 944 691.333C945.346 691.333 944.377 696.422 944 700C943.766 702.221 943.771 704.477 943.333 706.667C941.607 715.3 939.086 723.771 936 732C935.26 733.974 935.265 736.313 934 738C933.333 738.889 933.801 735.76 934 734.667C934.251 733.284 934.957 732.021 935.333 730.667C936.069 728.018 936.827 725.368 937.333 722.667C938.081 718.681 938.435 714.621 939.333 710.667C940.037 707.572 940.304 702.42 941.333 699.333C941.544 698.701 941.407 700.671 941.333 701.333C941.184 702.677 940.858 703.995 940.667 705.333C940.124 709.131 939.374 712.896 938.667 716.667C937.64 722.141 936.786 727.835 936 733.333C935.843 734.433 934.889 736.667 936 736.667C937.405 736.667 937.333 732.667 937.333 732.667C937.333 732.667 937.333 735.333 937.333 736.667C937.333 739.716 937.379 742.483 936.667 745.333C936.559 745.765 936.667 746.667 936.667 746.667C936.667 746.667 936.899 743.071 937.333 741.333C938.224 737.771 940.952 733.715 943.333 731.333C944 730.667 944.667 728.667 945.333 729.333C945.868 729.868 940.999 741.002 940.667 742C939.843 744.471 940.314 743.371 939.333 745.333C939.111 745.778 938.444 747.111 938.667 746.667C942.056 739.888 945.141 732.288 949.333 726C949.414 725.879 953.238 721.492 954 722C956.01 723.34 950.085 734.308 949.333 736C949.259 736.168 946.313 746.313 945.333 745.333C944.641 744.641 945.831 740.549 946 740C946.997 736.76 952.616 718.667 956.667 718.667C957.46 718.667 954.818 722.364 954.667 722.667C954.17 723.66 953.079 724.302 952.667 725.333C952.246 726.385 953.133 728.667 952 728.667C950.803 728.667 952.74 726.372 953.333 725.333C955.055 722.321 956.518 719.352 958.667 716.667C959.452 715.685 960.636 712.954 961.333 714C962.962 716.443 955.957 726.043 953.333 728.667C952.106 729.894 950.886 732.776 949.333 732C949.089 731.878 950.115 728.632 952 725.333C955.214 719.708 958.736 714.263 962 708.667C963.056 706.856 965.333 703.333 965.333 703.333C965.333 703.333 964.889 704.222 964.667 704.667C963.778 706.444 962.807 708.184 962 710C960.105 714.265 957.632 717.977 955.333 722C955.273 722.105 952.711 727.378 952 726.667C950.856 725.523 952.868 723.55 953.333 722C955.08 716.179 957.19 710.574 958.667 704.667C959.722 700.444 960.808 696.172 962 692C962.137 691.522 962.17 690.667 962.667 690.667C964.072 690.667 961.855 693.362 961.333 694.667C960.211 697.473 959.683 700.487 958.667 703.333C956.442 709.562 953.791 715.856 951.333 722C950.575 723.896 949.333 725.168 949.333 727.333C949.333 727.83 949.863 726.478 950 726C950.311 724.91 950.369 723.76 950.667 722.667C951.481 719.681 953.077 716.954 954 714C956.529 705.908 958.232 697.583 960 689.333C960.294 687.959 961.333 686.739 961.333 685.333C961.333 684.34 960.404 687.092 960 688C958.973 690.311 958.072 692.931 957.333 695.333C954.758 703.702 952.528 711.785 949.333 720C949.153 720.463 948.824 721.805 948.667 721.333C947.778 718.668 949.439 716.431 950 714C951.992 705.368 953.102 696.606 955.333 688C956.253 684.452 956.896 680.828 958 677.333C958.572 675.523 960 672 960 672C960 672 959.193 675.578 958.667 677.333C957.596 680.901 956.511 684.466 955.333 688C952.606 696.183 950.222 704.334 948 712.667C947.292 715.323 946.755 718.024 946 720.667C945.863 721.144 945.213 722.482 945.333 722C948.988 707.38 952.207 692.63 956 678C957.258 673.147 958.117 668.197 959.333 663.333C959.674 661.97 960.667 660.739 960.667 659.333C960.667 658.34 959.648 661.057 959.333 662C958.975 663.075 958.965 664.24 958.667 665.333C957.58 669.319 956.847 669.765 956 674C954.432 681.842 952.344 689.504 950.667 697.333C950.507 698.08 951.104 701.333 950 701.333C948.826 701.333 950.312 698.305 950.667 696C951.35 691.558 951.897 687.094 952.667 682.667C954.216 673.757 955.905 664.929 957.333 656C957.871 652.637 960 646.366 960 642.667C960 642.17 959.508 643.535 959.333 644C958.84 645.316 958.444 646.667 958 648C957.556 649.333 957.08 650.657 956.667 652C955.462 655.916 954.733 659.969 954 664C952.223 673.775 950.494 683.468 949.333 693.333C948.918 696.864 948.1 700.478 948.667 700.667C950.558 701.297 950.991 697.166 952 693.333C953.521 687.555 954.69 683.894 956 678C959.293 663.182 963.913 646.641 962 631.333C961.572 627.91 961.773 623.773 959.333 621.333C955.711 617.711 954.667 627.791 954.667 629.333C954.667 641.815 956.354 653.654 958 666C958.237 667.776 958.444 669.556 958.667 671.333C958.749 671.995 958.667 674 958.667 673.333C958.667 654.849 959.382 636.324 962 618C962.413 615.106 962.9 612.224 963.333 609.333C963.637 607.307 962.618 603.333 964.667 603.333C965.164 603.333 965.252 604.177 965.333 604.667C966.018 608.777 965.333 613.885 965.333 618C965.333 630.863 964.41 643.346 962 656C961.355 659.387 960.336 665.824 959.333 669.333C959.005 670.484 958.42 671.546 958 672.667C957.753 673.325 957.333 675.369 957.333 674.667C957.333 669.345 958.622 663.883 959.333 658.667C961.014 646.343 961.914 633.747 962.667 621.333C963.057 614.885 963.66 608.451 964 602C964.093 600.225 964 596.667 964 596.667C964 596.667 963.645 598.91 963.333 600C962.597 602.577 962.437 603.829 962 606.667C961.256 611.504 961.566 616.445 961.333 621.333C960.89 630.637 960.667 639.955 960.667 649.333C960.667 652.452 962.205 656.461 960 658.667C959.556 659.111 958.819 657.943 958.667 657.333C958.125 655.167 958.117 652.897 958 650.667C957.895 648.669 957.9 646.664 958 644.667C958.683 631.001 959.388 617.035 958.667 603.333C958.533 600.785 957.491 596 957.333 596C955.34 596 955.333 606.222 955.333 607.333C955.333 609.556 955.222 611.781 955.333 614C955.832 623.972 957.135 634.048 958 644C958.239 646.743 958.876 653.028 959.333 656C959.572 657.553 960 660.667 960 660.667C960 660.667 959.945 659.774 960 659.333C960.25 657.337 960.667 655.346 960.667 653.333C960.667 649.111 960.667 644.889 960.667 640.667C960.667 629.998 961.099 619.293 960 608.667C959.538 604.196 959.09 599.693 958 595.333C957.725 594.234 958.466 592 957.333 592C955.587 592 956 598.189 956 598.667C956 600.444 956 602.222 956 604C956 615.976 957.582 628.175 959.333 640C960.254 646.218 960.967 652.467 962 658.667C962.151 659.57 962.019 661.981 962.667 661.333C963.271 660.729 962.714 652.045 962.667 651.333C961.972 640.918 961.295 630.364 960 620C959.919 619.348 959.152 610.828 958.667 610.667C956.406 609.913 957.267 620.338 957.333 621.333C957.467 623.341 957.778 625.333 958 627.333C958.951 635.893 961.275 644.492 964 652.667C964.113 653.005 964.974 657.577 966.667 658C969.491 658.706 967.545 646.145 967.333 644.667C965.717 633.356 962.422 623.168 958 612.667C957.263 610.917 956.682 609.105 956 607.333C955.357 605.661 955.125 602.667 953.333 602.667C951.789 602.667 955.783 612.538 956 613.333C957.976 620.577 960.909 629.199 964 636C964.791 637.74 965.982 639.315 967.333 640.667C967.685 641.018 968.482 641.795 968.667 641.333C970.807 635.983 966.9 621.033 966 615.333C965.225 610.425 964.435 605.512 963.333 600.667C962.352 596.349 960.978 592.111 959.333 588C958.656 586.306 955.011 579.265 954 585.333C953.392 588.98 954.946 593.293 956 596.667C958.822 605.695 962.947 614.904 969.333 622C970.042 622.787 974.323 626.839 976 626C977.013 625.493 975.78 623.708 975.333 622.667C973.7 618.857 971.518 615.495 969.333 612C965.58 605.995 961.394 600.222 958 594C956.904 591.991 954.667 588 954.667 588C954.667 588 956.024 590.208 956.667 591.333C957.899 593.491 958.822 595.812 960 598C964.14 605.688 967.766 613.766 974 620C974.34 620.34 976.714 623.31 978 622.667C980.71 621.312 975.178 612.356 974.667 611.333C970.059 602.118 965.044 592.567 959.333 584C958.288 582.432 954.802 578.621 954.667 578.667C952.161 579.502 958.58 587.59 959.333 588.667C964.377 595.872 969.459 602.898 974.667 610C976.454 612.437 978.186 614.915 980 617.333C980.667 618.222 981.384 619.075 982 620C982.276 620.413 982.667 621.83 982.667 621.333C982.667 617.949 975.698 606.971 974 604C972.165 600.789 970.15 597.676 968 594.667C966.262 592.234 964.297 589.914 962 588C961.517 587.598 961.295 586.667 960.667 586.667C960.17 586.667 959.918 587.51 960 588C961.046 594.274 969.092 600.686 972.667 605.333C974.998 608.364 977.002 611.636 979.333 614.667C980.078 615.634 984.579 622.667 986.667 622.667C987.863 622.667 985.927 620.372 985.333 619.333C983.381 615.917 981.589 612.592 979.333 609.333C974.197 601.913 968.676 594.619 963.333 587.333C961.835 585.29 958.667 583.867 958.667 581.333C958.667 580.076 960.515 583.046 961.333 584C964.555 587.759 963.725 585.588 966.667 590C971.224 596.836 975.554 603.75 980 610.667C981.401 612.847 982.381 615.31 984 617.333C984.31 617.721 985.454 618.482 985.333 618C985.136 617.209 980.804 610.902 980.667 610.667C976.23 603.06 971.636 594.97 965.333 588.667C963.441 586.775 959.333 586.009 959.333 583.333C959.333 582.391 960.667 584.667 961.333 585.333C961.9 585.9 962.767 586.1 963.333 586.667C965.99 589.324 966.349 590.987 968.667 594C974.089 601.049 979.242 608.281 984.667 615.333C986.107 617.206 986.971 620.667 989.333 620.667C990 620.667 989.544 619.299 989.333 618.667C989.136 618.076 986.05 614.072 986 614C983.731 610.759 981.172 607.729 978.667 604.667C973.779 598.693 968.536 591.024 962 586.667C961.075 586.05 963.289 588.48 964 589.333C965.914 591.63 968.014 593.765 970 596C974.72 601.31 978.555 607.357 983.333 612.667C985.333 614.889 989.333 619.333 989.333 619.333C989.333 619.333 985.454 613.03 983.333 610C978.501 603.096 973.475 596.278 968.667 589.333C967.857 588.163 967.111 586.889 966 586C965.612 585.69 964.444 584.889 964.667 585.333C965.653 587.307 968.661 590.158 970 592C974.602 598.327 978.88 604.901 983.333 611.333C984.991 613.728 988.037 618.685 990.667 620C991.064 620.199 991.859 620.422 992 620C992.638 618.086 988.876 613.918 988 612.667C983.877 606.776 980.243 600.453 976 594.667C973.947 591.867 971.788 589.121 969.333 586.667C968.767 586.1 967.692 584.617 967.333 585.333C966.945 586.11 974.743 595.855 975.333 596.667C980.001 603.085 984.712 609.458 990 615.333C991.472 616.968 993.111 618.444 994.667 620C995.018 620.351 995.333 621.333 995.333 621.333C995.333 621.333 993.722 618.539 992.667 617.333C990.804 615.205 988.667 613.333 986.667 611.333C980.233 604.9 974.209 597.986 968 591.333C966.602 589.836 965.371 588.19 964 586.667C963.133 585.704 960.667 583.371 960.667 584.667C960.667 584.723 965.946 591.928 966 592C970.438 597.917 975 603.878 980 609.333C983.04 612.65 986.328 616.044 990 618.667C991.054 619.42 993.333 621.962 993.333 620.667C993.333 618.189 984.901 611.215 983.333 609.333C977.176 601.944 971.261 594.398 964.667 587.333C963.38 585.955 962 584.667 960.667 583.333C960 582.667 959.609 581.333 958.667 581.333C957.865 581.333 959.534 582.681 960 583.333C960.646 584.237 961.262 585.17 962 586C964.098 588.361 965.931 590.947 968 593.333C969.852 595.471 972.089 597.248 974 599.333C977.104 602.72 981.28 609.487 986 610.667C987.161 610.957 985.385 608.291 984.667 607.333C982.175 604.011 979.97 601.296 977.333 598C973.239 592.882 968.66 587.993 964 583.333C963.111 582.444 962.288 581.485 961.333 580.667C960.725 580.145 959.333 578.532 959.333 579.333C959.333 579.343 967.509 586.72 968 587.333C972.664 593.163 976.009 600.019 979.333 606.667C980.579 609.157 980.843 612.755 983.333 614C984.347 614.507 983.113 611.708 982.667 610.667C981.831 608.718 980.44 606.405 979.333 604.667C975.541 598.707 971.818 592.815 967.333 587.333C965.767 585.419 964.65 584.523 962.667 583.333C962.241 583.078 961.111 582.222 961.333 582.667C963.643 587.285 969.699 591.047 972.667 595.333C976.012 600.165 978.971 605.619 982 610.667C982.789 611.982 987.962 621.333 990 621.333C993.93 621.333 988.451 614.042 988 613.333C985.329 609.137 983.273 605.151 980 601.333C978.522 599.609 976.822 598.155 975.333 596.667C974.982 596.315 974.667 595.333 974.667 595.333C974.667 595.333 975.058 596.253 975.333 596.667C977.367 599.718 977.689 599.431 980 602.667C983.959 608.209 987.68 613.386 992 618.667C992.487 619.261 998.975 625.691 999.333 625.333C1001.42 623.243 994.977 616.062 994 614.667C990.441 609.582 986.478 604.901 982.667 600C981.601 598.63 979.333 596 979.333 596C979.333 596 980.823 598.142 981.333 599.333C982.89 602.966 983.303 602.622 986 606.667C989.545 611.984 993.733 617.199 998 622C998.401 622.451 1004 628.666 1004.67 628C1005.28 627.384 1000.38 622.993 1000 622.667C998.748 621.594 984 609.522 984 608C984 607.057 985.477 609.216 986 610C987.333 612 988.622 614.031 990 616C993.753 621.361 999.763 627.852 1005.33 631.333C1006.77 632.23 1008.98 634.687 1010 633.333C1011.74 631.013 1008.4 627.428 1007.33 626C1003.79 621.278 1000.18 616.175 996 612C994.208 610.208 992 608.889 990 607.333C989.368 606.841 988.358 605.283 988 606C987.287 607.427 993.403 613.92 994 614.667C998.359 620.116 1001.89 625.489 1006.67 630.667C1009.92 634.19 1012.36 637.63 1016 640.667C1016.48 641.069 1016.89 642.444 1017.33 642C1018.27 641.065 1013.18 635.253 1012.67 634.667C1008.62 630.047 1004.49 625.447 1000.67 620.667C1000.04 619.879 998.19 618.763 998.667 617.333C999.312 615.396 1001.97 620.543 1004 623.333C1005.78 625.778 1007.56 628.222 1009.33 630.667C1010.14 631.783 1017.41 641.333 1018.67 641.333C1019.8 641.333 1018.56 638.984 1018 638C1016.71 635.75 1015.36 633.54 1014 631.333C1013.06 629.807 1012.33 628.157 1011.33 626.667C1005.82 618.391 998.865 609.861 991.333 603.333C989.375 601.636 987.181 598.705 984.667 599.333C981.965 600.009 988.622 607.187 989.333 608C995.301 614.82 1001.59 621.589 1008 628C1009.78 629.778 1011.56 631.556 1013.33 633.333C1013.78 633.778 1014.67 635.295 1014.67 634.667C1014.67 632.031 1002.7 621.708 1000.67 619.333C998.645 616.975 996.582 615.061 994.667 612.667C993.881 611.685 992 610 992 610C992 610 994.299 612.151 995.333 613.333C997.302 615.583 999.322 617.788 1001.33 620C1005.78 624.892 1010.28 629.73 1014.67 634.667C1016.13 636.311 1017.13 639.333 1019.33 639.333C1020.18 639.333 1018.04 634.088 1018 634C1016.15 630.294 1014.53 626.393 1012.67 622.667C1012.44 622.222 1011.65 621.685 1012 621.333C1013.01 620.327 1014.09 623.366 1014.67 624.667C1016.82 629.509 1018.52 634.501 1020.67 639.333C1020.85 639.739 1023.04 646 1023.33 646C1024.74 646 1020.59 642 1022 642C1023.46 642 1027.06 648.149 1026.67 649.333C1026.4 650.121 1019.75 646.184 1017.33 646.667C1012.53 647.628 1009.52 651.239 1005.33 653.333C1002.25 654.873 998.528 655.469 995.333 656.667C991.459 658.119 988.996 663.089 986.667 666C985.685 667.227 984.59 668.391 983.333 669.333C982.936 669.631 982.196 670.457 982 670C978.637 662.153 983.321 649.546 985.333 642C985.663 640.763 988.116 631.254 987.333 630.667C985.339 629.171 982.226 632.106 981.333 633.333C980.1 635.029 978.938 636.792 978 638.667C974.233 646.201 973.154 657.716 972.667 666C972.574 667.577 971.627 675.907 974.667 676.667C976.221 677.055 976.973 674.228 977.333 672.667C977.736 670.921 977.689 669.098 978 667.333C979.824 656.996 981.333 646.536 981.333 636C981.333 633.68 981.534 628.6 979.333 629.333C977.969 629.788 976.876 640.992 976.667 642.667C975.382 652.946 974.667 662.967 974.667 673.333C974.667 677.147 974.27 680.946 975.333 684.667C975.47 685.144 975.602 686.298 976 686C979.849 683.113 978.667 672.989 978.667 669.333C978.667 661.59 978.315 653.735 978.667 646C978.879 641.333 980.811 636.432 979.333 632C979.019 631.057 978.369 633.744 978 634.667C977.478 635.972 977.029 637.309 976.667 638.667C975.18 644.241 973.906 649.888 972 655.333C968.201 666.187 963.437 677.002 960 688C959.597 689.29 959.627 690.68 959.333 692C959.181 692.686 958.038 693.686 958.667 694C960.376 694.855 961.199 691.069 962 689.333C962.833 687.529 963.946 685.852 964.667 684C968.308 674.637 971.486 664.875 974.667 655.333C975.934 651.533 977.298 647.765 978.667 644C978.907 643.34 979.333 641.297 979.333 642C979.333 647.55 975.777 653.78 974 658.667C972.748 662.111 972.222 665.778 971.333 669.333C970.667 672 970.042 674.677 969.333 677.333C968.902 678.95 967.394 684.727 968.667 686C969.111 686.444 969.699 685.218 970 684.667C972.151 680.723 972.508 679.578 973.333 676C976.48 662.364 977.697 648.329 980.667 634.667C981.16 632.4 982.029 630.231 982.667 628C982.918 627.119 982.685 625.981 983.333 625.333C983.805 624.862 983.333 626.667 983.333 627.333C983.333 628.889 983.526 630.456 983.333 632C982.798 636.281 981.474 640.428 980.667 644.667C978.295 657.12 973.58 668.496 970 680.667C969.224 683.304 968.82 686.043 968 688.667C967.416 690.534 964.71 699.688 964 699.333C963.269 698.968 964.496 694.35 965.333 690.667C965.99 687.776 966.638 684.882 967.333 682C969.922 671.275 972.799 660.743 977.333 650.667C979.537 645.769 980.841 640.343 984 636C984.786 634.919 987.957 633.248 988 633.333C990.002 637.338 985.898 645.324 984.667 648.667C980.864 658.987 977.055 669.24 972.667 679.333C970.804 683.618 968.624 687.758 966.667 692C966.165 693.087 965.662 694.183 965.333 695.333C965.211 695.761 964.889 696.667 965.333 696.667C966.327 696.667 966.191 694.872 966.667 694C969.643 688.544 971.196 685.103 973.333 679.333C974.824 675.309 976.533 671.367 978 667.333C980.171 661.362 981.014 650.986 986 646C986.648 645.352 985.694 647.825 985.333 648.667C985.018 649.403 984.336 649.939 984 650.667C982.997 652.84 982.305 655.146 981.333 657.333C976.612 667.956 970.768 678.071 966 688.667C964.323 692.392 962.73 696.16 961.333 700C961.02 700.861 960.817 701.763 960.667 702.667C960.594 703.105 960.352 704.314 960.667 704C964.537 700.129 965.508 693.458 967.333 688.667C971.964 676.512 976.282 664.276 980.667 652C982.171 647.788 983.756 643.395 986.667 640C987.076 639.523 987.371 638.667 988 638.667C988.444 638.667 988 639.556 988 640C988 641.111 988.169 642.235 988 643.333C986.979 649.972 983.61 656.407 981.333 662.667C976.254 676.635 969.489 688.601 962 701.333C961.208 702.679 958.299 708 958 708C957.297 708 958.352 706.629 958.667 706C959.468 704.398 960.57 702.954 961.333 701.333C963.449 696.837 965.694 692.402 968 688C973.589 677.33 978.129 666.175 983.333 655.333C984.753 652.375 986.226 649.427 988 646.667C988.269 646.249 989.058 645.587 989.333 646C990.86 648.29 986.691 656.322 986 658C982.399 666.744 979.85 675.753 976.667 684.667C975.249 688.637 973.753 692.593 972.667 696.667C972.318 697.973 972.328 699.355 972 700.667C971.879 701.149 970.982 702.351 971.333 702C975.186 698.147 975.458 692.371 976.667 687.333C977.736 682.879 978.809 678.424 980 674C983.249 661.931 985.176 650.245 990 638.667C990.782 636.79 994.085 628.479 996 628C996.862 627.784 996.261 629.817 996 630.667C995.356 632.759 994.119 634.624 993.333 636.667C993.004 637.522 993.019 638.488 992.667 639.333C987.397 651.98 980.691 663.236 977.333 676.667C976.774 678.902 976.382 682.667 976.667 682.667C977.776 682.667 981.907 670.244 982.667 667.333C983.715 663.316 984.741 659.289 986 655.333C988.018 648.992 989.941 642.406 992 636C993.075 632.655 994.342 629.371 995.333 626C995.671 624.852 996.667 622.667 996.667 622.667C996.667 622.667 994.28 626.584 993.333 628.667C991.438 632.837 989.609 637.044 988 641.333C984.614 650.362 979.502 663.342 982 673.333C982.121 673.815 983.023 673.055 983.333 672.667C983.954 671.891 984.275 670.913 984.667 670C985.968 666.964 987.028 663.824 988 660.667C990.526 652.457 993.486 644.361 997.333 636.667C998.357 634.62 999.355 632.541 1000.67 630.667C1000.95 630.26 1002.1 629.513 1002 630C999.935 640.323 992.502 649.253 987.333 658C983.183 665.024 979.411 672.266 975.333 679.333C972.139 684.871 968.817 689.761 964.667 694.667C963.546 695.992 962.886 697.89 961.333 698.667C960.514 699.076 961.639 696.842 962 696C962.316 695.264 962.958 694.708 963.333 694C965.566 689.783 967.616 685.466 970 681.333C975.956 671.009 981.899 657.668 990 648.667C992.6 645.777 996.766 640.51 1000 642.667C1002.07 644.045 999.225 647.579 998.667 650C997.417 655.415 994.248 659.371 991.333 664C981.827 679.099 971.998 693.336 959.333 706C958.548 706.786 960.696 704.244 961.333 703.333C962.252 702.021 963.069 700.637 964 699.333C967.799 694.015 971.535 688.652 975.333 683.333C982.774 672.916 989.34 662.125 997.333 652C998.498 650.525 1003.5 646.343 1004 647.333C1005 649.329 1001.16 653.838 1000.67 654.667C999.49 656.629 998.567 658.74 997.333 660.667C989.882 672.31 980.291 682.279 972 693.333C971.263 694.316 966.884 700.797 970 702.667C974.49 705.361 976.221 698.053 977.333 695.333C982.732 682.137 986.511 668.204 992.667 655.333C994.55 651.395 997.161 647.054 998 647.333C999.689 647.896 997.478 650.869 996 653.333C991.888 660.187 989.134 665.337 985.333 672.667C979.05 684.785 972.885 698.006 965.333 709.333C964.944 709.918 965.709 707.973 966 707.333C966.822 705.524 967.851 703.813 968.667 702C969.852 699.366 970.742 696.6 972 694C974.078 689.705 976.335 685.496 978.667 681.333C981.926 675.513 985.408 669.82 988.667 664C991.713 658.56 997.864 648.667 1005.33 648.667C1006.34 648.667 1000.83 655.003 1000.67 655.333C999.685 657.296 998.661 661.184 998 663.333C996.324 668.78 995.224 674.886 992.667 680C992.087 681.159 991.962 683.333 990.667 683.333C989.556 683.333 990.412 681.082 990.667 680C991.31 677.264 992.398 674.651 993.333 672C994.528 668.615 995.919 665.3 997.333 662C1001.39 652.535 1006.59 642.537 1013.33 634.667C1014.46 633.349 1015.62 631.579 1017.33 631.333C1018.24 631.204 1018.2 633.106 1018 634C1017.72 635.265 1016.58 636.174 1016 637.333C1015.24 638.847 1014.85 640.538 1014 642C1009.61 649.534 999.864 656.674 996.667 664.667C996.254 665.698 998.744 663.609 999.333 662.667C1000.12 661.403 1000.67 660 1001.33 658.667C1003.34 654.649 1004.53 649.757 1005.33 645.333C1005.61 643.787 1005.83 642.228 1006 640.667C1006.05 640.225 1006 638.889 1006 639.333C1006 648.286 1000.46 657.861 997.333 666C996.191 668.97 995.001 671.957 993.333 674.667C992.839 675.47 991.755 677.51 991.333 676.667C990.453 674.906 991.252 670.245 992 668C993.045 664.866 994.191 661.767 995.333 658.667C997.091 653.896 998.996 644.803 1003.33 641.333C1004.22 640.625 1003.27 643.706 1002.67 644.667C1001.98 645.765 1001.35 646.896 1000.67 648C999.568 649.785 998.536 651.616 997.333 653.333C994.504 657.375 986.07 672.807 988.667 678C990.095 680.856 991.26 675.592 991.333 675.333C992.72 670.479 993.442 665.565 994.667 660.667C994.889 659.778 995.204 658.907 995.333 658C995.428 657.34 995.631 655.404 995.333 656C994.2 658.266 994.274 660.981 993.333 663.333C988.349 675.795 981.653 688.333 974 699.333C971.182 703.384 968.201 707.318 965.333 711.333C964.325 712.746 963.066 713.963 962 715.333C961.508 715.966 959.865 717.333 960.667 717.333C964.262 717.333 967.889 709.444 969.333 707.333C975.368 698.513 980.803 689.156 987.333 680.667C988.392 679.291 989.568 678.01 990.667 676.667C991.568 675.565 991.938 673.612 993.333 673.333C994.232 673.154 994.222 675.111 994 676C993.731 677.078 992.589 677.724 992 678.667C990.364 681.285 988.991 684.062 987.333 686.667C982.155 694.804 976.843 703.256 970.667 710.667C970.224 711.198 966.219 715.104 966 714.667C965.398 713.464 970.099 706.725 971.333 704.667C976.549 695.973 981.96 688.053 988 680C988.49 679.347 991.321 674 993.333 674C996.673 674 989.212 683.888 988.667 684.667C981.855 694.397 976.193 704.737 968.667 714C967.279 715.707 965.67 717.235 964 718.667C963.392 719.188 961.556 720.667 962 720C965.995 714.008 971.484 708.966 975.333 702.667C977.821 698.595 979.609 694.129 982 690C984.367 685.912 987.683 679.8 992 677.333C992.61 676.985 993.503 676.17 994 676.667C995.06 677.727 992.903 682.282 992.667 682.667C991.502 684.559 989.81 686.094 988.667 688C980.918 700.914 974.272 714.442 960.667 722C959.695 722.54 959.054 723.649 958 724C957.529 724.157 958.42 723.098 958.667 722.667C959.31 721.542 960.014 720.453 960.667 719.333C962.685 715.873 965.005 712.593 967.333 709.333C972.474 702.136 977.045 694.289 983.333 688C985.333 686 987.032 683.644 989.333 682C989.905 681.592 991.333 680.631 991.333 681.333C991.333 682.284 987.937 684.184 987.333 684.667C984.458 686.967 982.905 690.856 981.333 694C980.232 696.203 978.667 698.112 978.667 700.667C978.667 701.111 978.269 702.199 978.667 702C981.176 700.745 982.879 694.018 984 692C988.629 683.668 994.909 675.715 1002 669.333C1003.62 667.873 1009.57 663.806 1010.67 666C1011.52 667.708 1008.78 672.736 1008 674C1003.3 681.636 996.124 687.674 989.333 693.333C987.278 695.046 985.225 696.775 983.333 698.667C982.548 699.452 981.333 701.333 981.333 701.333C981.333 701.333 982.807 699.184 983.333 698C984.626 695.092 985.605 692.005 987.333 689.333C992.51 681.333 998.255 673.72 1004.67 666.667C1005.72 665.504 1006.51 663.83 1008 663.333C1008.42 663.193 1008.12 664.239 1008 664.667C1007.67 665.817 1007.31 666.993 1006.67 668C1004.86 670.804 1002.38 673.142 1000.67 676C996.505 682.937 991.174 688.457 986 694.667C985.289 695.52 985.111 697.333 984 697.333C983.006 697.333 984.756 695.475 985.333 694.667C986.706 692.744 988.603 691.238 990 689.333C991.971 686.645 993.805 683.842 996 681.333C1001.43 675.129 1005.87 668.15 1011.33 662C1013.22 659.879 1016.23 655.853 1016.67 656C1018.66 656.665 1013.58 664.208 1013.33 664.667C1010.17 670.461 1006.44 676.959 1001.33 681.333C1000.38 682.151 999.924 684 998.667 684C997.673 684 999.379 682.109 1000 681.333C1000.5 680.708 1000.94 680.029 1001.33 679.333C1002.57 677.176 1003.67 674.943 1004.67 672.667C1006.6 668.252 1010.89 654.891 1015.33 652.667C1015.93 652.369 1015.54 654.034 1015.33 654.667C1015.08 655.427 1014.4 655.971 1014 656.667C1013.51 657.53 1013.22 658.506 1012.67 659.333C1011.88 660.517 1010.83 661.509 1010 662.667C1006.17 668.023 1002.97 672.493 998.667 677.333C997.397 678.762 995.333 680.088 995.333 682C995.333 683.111 997.262 680.83 998 680C999.778 678 1001.78 676.177 1003.33 674C1008.13 667.283 1012.44 660.372 1016.67 653.333C1017.4 652.113 1018.44 651.111 1019.33 650C1019.95 649.224 1019.78 646.889 1020.67 647.333C1023.07 648.533 1019.77 652.376 1019.33 653.333C1017.3 657.796 1015.53 662.274 1013.33 666.667C1012.58 668.18 1011.96 669.762 1011.33 671.333C1011.15 671.795 1010.44 673.111 1010.67 672.667C1014.41 665.177 1017.94 657.643 1021.33 650C1022.06 648.363 1022.21 645.333 1024 645.333C1024.67 645.333 1024.3 646.737 1024 647.333C1023.58 648.177 1022.58 648.589 1022 649.333C1021.02 650.598 1020.18 651.974 1019.33 653.333C1017.21 656.731 1014.74 659.877 1012.67 663.333C1012 664.444 1011.18 665.476 1010.67 666.667C1010.49 667.075 1010.27 668.199 1010.67 668C1012.28 667.192 1017.86 653.253 1019.33 650.667C1020.26 649.053 1020.86 648.058 1022.67 647.333C1023.08 647.168 1024 646.889 1024 647.333C1024 654.05 1017.65 661.555 1014 666.667C1013.93 666.768 1011.97 670 1011.33 670C1010.84 670 1011.72 669.08 1012 668.667C1012.62 667.742 1013.41 666.942 1014 666C1014.53 665.157 1014.93 664.241 1015.33 663.333C1017.06 659.451 1019.21 655.72 1021.33 652C1021.98 650.875 1022.42 647.75 1023.33 648.667C1024.33 649.663 1018.75 660.789 1018 662.667C1017.56 663.778 1017.05 664.865 1016.67 666C1016.44 666.667 1015.69 668.629 1016 668C1017.63 664.747 1023.64 650 1028 650C1029.54 650 1028.31 653.629 1028 654C1025.02 657.579 1021.81 661.748 1019.33 666C1018.48 667.462 1018.02 669.12 1017.33 670.667C1017.13 671.121 1016.17 672 1016.67 672C1018.2 672 1018.5 668.388 1018.67 668C1020.55 663.603 1023.24 658.525 1026 654.667C1026.93 653.363 1027.06 650.667 1028.67 650.667C1030.29 650.667 1026.41 656.519 1026 657.333C1025.78 657.778 1025.33 659.164 1025.33 658.667C1025.33 657.284 1031.54 646.667 1033.33 646.667C1033.44 646.667 1032.87 650.957 1034 651.333C1034.53 651.509 1040.04 646.711 1038 644.667C1034.62 641.283 1028.9 646.349 1027.33 644C1026.03 642.048 1023.51 630 1020 630C1018.43 630 1019.8 633.359 1020.67 634.667C1022.82 637.897 1025.88 641.403 1026.67 645.333C1026.87 646.354 1028 648.426 1028 649.333C1028 653.674 1025.08 654.835 1027.33 659.333C1027.56 659.778 1027.5 660.667 1028 660.667C1028.32 660.667 1030.33 657.111 1030.67 656.667C1031.65 655.359 1032.91 654.372 1033.33 652.667C1033.44 652.235 1032.94 651.532 1033.33 651.333C1033.78 651.111 1034.22 652.222 1034.67 652C1035.92 651.371 1035.05 646.296 1034.67 645.333C1033.45 642.294 1029.96 642.592 1028.67 640C1028.47 639.602 1028.91 639.036 1028.67 638.667C1028.34 638.172 1025.41 635.926 1024.67 636.667C1024.35 636.981 1024.22 638 1024.67 638C1025.16 638 1025.11 637.111 1025.33 636.667" fill="none" opacity="1" stroke="#f7c25b" stroke-linecap="round" stroke-linejoin="round" stroke-width="10" vectornator:layerName="Curve 1"/>
<path d="M943.333 617.333C939.082 608.831 936.941 605.53 938 596C938.372 592.655 939.333 590.076 939.333 586.667C939.333 586.222 939.532 584.936 939.333 585.333C935.438 593.123 938.372 611.303 940.667 619.333C940.826 619.891 943.8 629.433 945.333 628.667C945.621 628.523 945.346 622.784 945.333 622.667C944.69 616.879 943.143 611.046 942 605.333C941.222 601.445 941.608 597.099 940.667 593.333C940.546 592.851 940.497 592 940 592C938.243 592 939.975 597.862 940 598C940.841 602.623 941.335 607.348 942 612C942.827 617.786 943.36 623.569 944 629.333C944.075 630.009 943.561 632.596 944.667 633.333C946.082 634.277 948.322 631.664 950 632C952.974 632.595 955.5 635.667 958 637.333" fill="none" opacity="1" stroke="#f7c25b" stroke-linecap="round" stroke-linejoin="round" stroke-width="10" vectornator:layerName="Curve 2"/>
<path d="M996 632C991.254 629.627 988.202 621.637 985.333 617.333C983.549 614.657 980.329 613.16 978.667 610.667C976.976 608.13 975.543 604.981 974 602.667C973.147 601.387 973.191 598.823 972 597.333C969.211 593.847 967.893 589.413 965.333 586C964.667 585.111 963.452 584.786 962.667 584C961.881 583.214 959.556 581.333 960.667 581.333C961.839 581.333 965.173 585.173 966 586C970.738 590.738 974.642 595.968 978.667 601.333C980.08 603.218 983.245 609.807 986.667 608.667C987.609 608.352 985.93 606.795 985.333 606C982.899 602.754 980.913 598.913 978 596C977.214 595.214 975.006 593.83 976 593.333C977.612 592.527 983.234 601.802 984 603.333C984.444 604.222 984.889 605.111 985.333 606C985.556 606.444 986 607.83 986 607.333C986 605.558 974.901 591.333 974 591.333C973.556 591.333 973.892 592.235 974 592.667C974.205 593.487 975.713 595.57 976 596C976.444 596.667 976.936 597.304 977.333 598C980.188 602.996 984.047 607.428 986.667 612.667C986.899 613.131 988.911 616.939 987.333 617.333C985.103 617.891 975.779 605.779 974 604C973.111 603.111 972.526 600.936 971.333 601.333C969.76 601.858 971.301 605.709 971.333 606C971.87 610.831 971.894 617.238 971.333 622C970.473 629.317 967.653 636.838 966 644C963.962 652.829 962.317 661.757 960.667 670.667C959.254 678.294 957.015 688.272 959.333 696C959.978 698.151 961.321 700.994 963.333 702C963.778 702.222 964.391 703.08 964.667 702.667C966.049 700.594 963.731 695.056 963.333 693.333C961.976 687.451 960.413 681.819 958.667 676C958.215 674.495 959.571 671.333 958 671.333C957.891 671.333 956.868 674.309 956.667 677.333C956.534 679.329 956.9 681.347 956.667 683.333C955.821 690.524 953.326 698.358 951.333 705.333C950.637 707.77 950.029 710.23 949.333 712.667C949.06 713.622 948.314 716.276 948 715.333C947.01 712.362 949.781 699.915 950.667 696.667C951.166 694.835 951.087 692.387 952.667 691.333C953.08 691.058 953.903 691.513 954 692C954.392 693.961 954.125 696.004 954 698C953.902 699.568 953.642 701.126 953.333 702.667C951.905 709.807 949.935 716.57 947.333 723.333C946.577 725.301 946.598 727.647 945.333 729.333C945.035 729.731 944.351 730.351 944 730C943.602 729.602 943.917 723.246 944 722C944.613 712.811 946.196 703.686 948 694.667C948.52 692.064 949.199 687.902 950.667 685.333C950.979 684.788 951.651 683.477 952 684C952.576 684.863 951.343 691.949 951.333 692C949.797 700.064 947.877 708.022 946 716C945.259 719.15 944.185 722.212 943.333 725.333C943.035 726.427 942.827 727.545 942.667 728.667C942.604 729.107 942.269 730.199 942.667 730C945.319 728.674 944.486 723.499 944.667 721.333C945.204 714.889 946.35 708.391 947.333 702C947.707 699.574 947.596 697.088 948 694.667C948.082 694.177 948.569 692.846 948.667 693.333C949.507 697.533 947.269 703.783 946.667 708C946.389 709.943 944.667 712.046 944.667 714C944.667 714.994 945.556 712.222 946 711.333C946.875 709.584 948.235 708.315 949.333 706.667" fill="none" opacity="1" stroke="#f7c25b" stroke-linecap="round" stroke-linejoin="round" stroke-width="10" vectornator:layerName="Curve 3"/>
</g>
</svg>
