<?xml version="1.0" encoding="UTF-8" standalone="no"?>
<!DOCTYPE svg PUBLIC "-//W3C//DTD SVG 1.1//EN" "http://www.w3.org/Graphics/SVG/1.1/DTD/svg11.dtd">
<!-- Created with Vectornator (http://vectornator.io/) -->
<svg height="100%" stroke-miterlimit="10" style="fill-rule:nonzero;clip-rule:evenodd;stroke-linecap:round;stroke-linejoin:round;" version="1.1" viewBox="0 0 1080 1080" width="100%" xml:space="preserve" xmlns="http://www.w3.org/2000/svg" xmlns:vectornator="http://vectornator.io" xmlns:xlink="http://www.w3.org/1999/xlink">
<defs/>
<g id="Layer-1" vectornator:layerName="Layer 1">
<path d="M212.885 422L541.971 79.5523L894.448 418.276" fill="#f7c25b" fill-rule="nonzero" opacity="1" stroke="#eea22d" stroke-linecap="butt" stroke-linejoin="round" stroke-width="6.98937" vectornator:layerName="Rectangle 5"/>
<path d="M332.667 638.333L442.667 641" fill="none" opacity="1" stroke="#a8545b" stroke-linecap="butt" stroke-linejoin="round" stroke-width="10" vectornator:layerName="Line 4"/>
<path d="M312.333 422L795 422L795 860L312.333 860L312.333 422Z" fill="#f7c25b" fill-rule="nonzero" opacity="1" stroke="#eea22d" stroke-linecap="butt" stroke-linejoin="round" stroke-width="10" vectornator:layerName="Rectangle 1"/>
<path d="M332.667 551.667L442.667 551.667L442.667 643.667L332.667 643.667L332.667 551.667Z" fill="#f7c25b" fill-opacity="0" fill-rule="nonzero" opacity="1" stroke="#a8545b" stroke-linecap="butt" stroke-linejoin="round" stroke-width="10" vectornator:layerName="Rectangle 4"/>
<path d="M660 595L770 597.667" fill="none" opacity="1" stroke="#a8545b" stroke-linecap="butt" stroke-linejoin="round" stroke-width="10" vectornator:layerName="Line 2"/>
<path d="M660 551.667L770 551.667L770 643.667L660 643.667L660 551.667Z" fill="#f7c25b" fill-opacity="0" fill-rule="nonzero" opacity="1" stroke="#a8545b" stroke-linecap="butt" stroke-linejoin="round" stroke-width="10" vectornator:layerName="Rectangle 3"/>
<path d="M387.667 551.667L387.667 643.667" fill="none" opacity="1" stroke="#a8545b" stroke-linecap="butt" stroke-linejoin="round" stroke-width="10" vectornator:layerName="Line 3"/>
<path d="M715 549L715 641" fill="none" opacity="1" stroke="#a8545b" stroke-linecap="butt" stroke-linejoin="round" stroke-width="10" vectornator:layerName="Line 1"/>
<path d="M503 641L604.333 641L604.333 860L503 860L503 641Z" fill="#f7c25b" fill-opacity="0" fill-rule="nonzero" opacity="1" stroke="#a8545b" stroke-linecap="butt" stroke-linejoin="round" stroke-width="10" vectornator:layerName="Rectangle 2"/>
<path d="M332.667 597.667L442.667 597.667" fill="none" opacity="1" stroke="#a8545b" stroke-linecap="butt" stroke-linejoin="round" stroke-width="6.98937" vectornator:layerName="Line 5"/>
<path d="M448.305 765.513C447.671 766.147 447.038 766.78 446.405 767.413" fill="none" opacity="1" stroke="#f7c25b" stroke-linecap="round" stroke-linejoin="round" stroke-width="6.98937" vectornator:layerName="Curve 1"/>
<path d="M448.938 786.413C450.205 786.413 451.471 786.413 452.738 786.413" fill="none" opacity="1" stroke="#f7c25b" stroke-linecap="round" stroke-linejoin="round" stroke-width="6.98937" vectornator:layerName="Curve 2"/>
<path d="M452.105 785.146C444.96 778.001 453.843 718.647 454.638 718.647C467.064 718.647 434.973 799.65 428.672 787.046C403.524 736.752 457.725 751.008 406.505 790.846C396.361 798.736 409.851 764.762 416.005 753.48C433.356 721.669 444.035 820.204 416.005 797.18C403.517 786.921 373.408 715.152 405.238 778.813" fill="none" opacity="1" stroke="#f7c25b" stroke-linecap="round" stroke-linejoin="round" stroke-width="6.98937" vectornator:layerName="Curve 3"/>
<path d="M586.37 750.947L586.37 749.047L585.737 747.78L585.737 749.68L584.47 750.313L585.104 747.78L585.737 746.513L587.004 748.413L587.004 750.947L586.37 752.847L585.104 752.213L585.104 749.68L585.104 747.78L585.104 749.68L585.737 748.413L586.37 747.147L587.004 745.88L586.37 747.78L585.737 746.513L586.37 748.413L585.737 750.313L585.737 748.413L585.104 747.147L586.37 746.513L587.004 747.78L586.37 749.047L586.37 747.147L587.637 747.78L587.637 750.313L586.37 749.68L585.737 748.413L586.37 749.68L586.37 751.58L585.104 752.213L585.737 749.047L586.37 747.78L587.637 749.047L586.37 751.58L585.104 752.213L584.47 750.947L584.47 748.413L584.47 746.513L585.104 745.247L587.004 745.88L587.004 747.78L587.004 750.313L585.737 752.213L584.47 752.847L583.204 750.313L583.204 747.147L583.837 745.88L585.104 745.247L586.37 747.78L586.37 750.947L586.37 752.847L585.104 753.48L584.47 752.213L584.47 749.047L585.104 747.147L585.737 750.313L585.737 752.847L585.104 750.313L585.104 748.413L585.737 747.147L586.37 748.413L586.37 750.947L586.37 752.847L585.737 754.113L584.47 752.213L584.47 749.047L584.47 746.513L585.737 745.247L587.004 745.88L587.637 748.413L588.27 750.313L588.27 752.213L587.004 753.48L585.104 752.213L584.47 750.313L584.47 747.78L585.104 746.513L587.004 745.88L587.004 747.78L587.004 749.68L586.37 751.58L585.104 752.847L584.47 750.313L585.737 746.513L587.004 744.613L588.903 746.513L588.903 749.68L588.27 751.58L587.004 752.847L585.104 749.68L584.47 745.88L584.47 742.713L585.737 741.447L587.637 744.613L588.27 747.78L587.637 750.947L585.104 752.213L583.837 750.313L583.837 747.78L583.837 745.88L585.104 744.613L587.004 744.613L588.27 745.88L588.903 747.147L588.903 749.047L588.27 750.313L586.37 751.58L584.47 751.58L583.204 750.313L583.204 747.78L584.47 745.88L586.37 744.613L588.27 743.98L588.903 745.88L588.903 747.78L587.637 750.313L585.737 750.947L583.837 750.313L583.204 748.413L583.204 745.247L584.47 742.713L585.737 742.08L587.637 742.713L588.903 745.247L588.903 748.413L588.27 750.313L587.004 750.947L585.104 750.947L583.837 749.047L583.837 746.513L583.837 744.613L585.104 743.347L587.637 743.98L588.27 745.247L588.27 747.147L587.637 749.68L585.737 752.213L583.204 752.847L581.937 752.213L581.937 749.047L583.204 745.88L584.47 743.98L587.004 743.347L587.637 745.247L587.637 749.68L586.37 752.847L584.47 755.38L582.57 752.847L583.204 749.047L583.837 746.513L585.104 745.88L586.37 747.147" fill="none" opacity="1" stroke="#a8545b" stroke-linecap="round" stroke-linejoin="round" stroke-width="6.98937" vectornator:layerName="Curve 4"/>
</g>
</svg>
