<?xml version="1.0" encoding="UTF-8" standalone="no"?>
<!DOCTYPE svg PUBLIC "-//W3C//DTD SVG 1.1//EN" "http://www.w3.org/Graphics/SVG/1.1/DTD/svg11.dtd">
<!-- Created with Vectornator (http://vectornator.io/) -->
<svg height="100%" stroke-miterlimit="10" style="fill-rule:nonzero;clip-rule:evenodd;stroke-linecap:round;stroke-linejoin:round;" version="1.1" viewBox="0 0 1080 1080" width="100%" xml:space="preserve" xmlns="http://www.w3.org/2000/svg" xmlns:vectornator="http://vectornator.io" xmlns:xlink="http://www.w3.org/1999/xlink">
<defs/>
<g id="Layer-1" vectornator:layerName="Layer 1">
<path d="M79.3333 274L557.333 274L557.333 924L79.3333 924L79.3333 274Z" fill="#a8545b" fill-rule="nonzero" opacity="1" stroke="none" vectornator:layerName="Rectangle 1"/>
<path d="M557.333 274L1036 274L1036 924L557.333 924L557.333 274Z" fill="#a8545b" fill-rule="nonzero" opacity="1" stroke="#f7c25b" stroke-linecap="butt" stroke-linejoin="round" stroke-opacity="0" stroke-width="10" vectornator:layerName="Rectangle 2"/>
<path d="M557.333 274L557.333 924" fill="none" opacity="1" stroke="#0d4e95" stroke-linecap="butt" stroke-linejoin="round" stroke-width="10" vectornator:layerName="Line 1"/>
<path d="M140 364C149.301 345.398 161.723 327.165 172 308.667C176.979 299.705 181.787 290.977 188.667 283.333C189.828 282.043 191.704 278.556 192.667 280C196.502 285.753 192.25 326.372 193.333 336.667C194.009 343.083 194.302 349.109 196 355.333C196.413 356.849 195.556 361.111 196.667 360C206.535 350.132 212.318 315.215 222 300C223.008 298.415 229.347 285.503 231.333 286C232.549 286.304 233.155 288.444 233.333 289.333C234.761 296.473 227.996 383.345 235.333 361.333" fill="none" opacity="1" stroke="#f7c25b" stroke-linecap="round" stroke-linejoin="round" stroke-width="10" vectornator:layerName="Curve 1"/>
<path d="M276 338C273.768 333.535 299.433 333.572 302.667 331.333C309.304 326.738 322.248 309.118 315.333 300.667C308.962 292.88 296.289 304.193 292.667 308.667C280.588 323.587 274.268 343.451 287.333 360C291.176 364.867 304.398 373.402 309.333 366" fill="none" opacity="1" stroke="#f7c25b" stroke-linecap="round" stroke-linejoin="round" stroke-width="10" vectornator:layerName="Curve 2"/>
<path d="M367.333 298C362.03 296.232 354.487 344.024 353.333 351.333C353.106 352.774 350.721 369.387 350 368.667C339.014 357.68 361.445 297.148 386 305.333C408.497 312.832 383.944 398.834 396.667 360.667" fill="none" opacity="1" stroke="#f7c25b" stroke-linecap="round" stroke-linejoin="round" stroke-width="10" vectornator:layerName="Curve 3"/>
<path d="M433.333 320C426.961 316.814 431.536 334.223 432 341.333C433.293 361.157 434.709 380 458.667 380C492.319 380 500.89 330.662 506.667 304.667" fill="none" opacity="1" stroke="#f7c25b" stroke-linecap="round" stroke-linejoin="round" stroke-width="10" vectornator:layerName="Curve 4"/>
<path d="M646.667 290.667C646.667 279.781 613.973 304.053 610.667 310.667C598.88 334.239 640.263 340.125 631.333 361.333C628.189 368.801 594.018 399.37 588 387.333" fill="none" opacity="1" stroke="#f7c25b" stroke-linecap="round" stroke-linejoin="round" stroke-width="10" vectornator:layerName="Curve 5"/>
<path d="M669.333 307.333C669.333 315.244 672.357 322.633 672 330.667C671.21 348.443 662.472 361.999 658 378.667C657.283 381.338 651.794 400 660.667 400" fill="none" opacity="1" stroke="#f7c25b" stroke-linecap="round" stroke-linejoin="round" stroke-width="10" vectornator:layerName="Curve 6"/>
<path d="M674 320.667C680.772 300.351 710.083 306.434 715.333 325.333C720.237 342.987 665.137 364.863 680.667 349.333" fill="none" opacity="1" stroke="#f7c25b" stroke-linecap="round" stroke-linejoin="round" stroke-width="10" vectornator:layerName="Curve 7"/>
<path d="M731.333 354C734.23 348.207 763.52 357.441 772 332C776.014 319.957 735.832 329.171 730 346.667C725.213 361.028 749.895 396.105 764.667 381.333" fill="none" opacity="1" stroke="#f7c25b" stroke-linecap="round" stroke-linejoin="round" stroke-width="10" vectornator:layerName="Curve 8"/>
<path d="M814.667 326.667C778.239 308.453 768.602 398.699 807.333 379.333" fill="none" opacity="1" stroke="#f7c25b" stroke-linecap="round" stroke-linejoin="round" stroke-width="10" vectornator:layerName="Curve 9"/>
<path d="M829.333 362C829.333 367.122 830.863 371.486 830 376.667" fill="none" opacity="1" stroke="#f7c25b" stroke-linecap="round" stroke-linejoin="round" stroke-width="10" vectornator:layerName="Curve 10"/>
<path d="M844 335.333L846 327.333" fill="none" opacity="1" stroke="#f7c25b" stroke-linecap="round" stroke-linejoin="round" stroke-width="10" vectornator:layerName="Curve 11"/>
<path d="M880.667 343.333C866.787 343.333 846.546 377.772 865.333 378.667C882.281 379.474 895.154 355.234 893.333 340.667C893.098 338.783 893.232 335.333 891.333 335.333C885.668 335.333 888.435 346.351 888 352C886.776 367.909 893.382 376.943 908.667 380" fill="none" opacity="1" stroke="#f7c25b" stroke-linecap="round" stroke-linejoin="round" stroke-width="10" vectornator:layerName="Curve 12"/>
<path d="M939.333 316.667C932.742 336.439 934.287 358.345 926.667 378.667C921.581 392.228 922.478 379.8 923.333 374.667" fill="none" opacity="1" stroke="#f7c25b" stroke-linecap="round" stroke-linejoin="round" stroke-width="10" vectornator:layerName="Curve 13"/>
<path d="M984.667 328C976.185 328 970.169 346.346 971.333 353.333C973.161 364.297 998.799 373.506 979.333 382.667C974.358 385.008 969.885 386.185 964.667 388C962.21 388.854 959.778 389.778 957.333 390.667" fill="none" opacity="1" stroke="#f7c25b" stroke-linecap="round" stroke-linejoin="round" stroke-width="10" vectornator:layerName="Curve 14"/>
<path d="M135.333 458C130.966 466.734 181.761 479.585 189.333 480.667C236.427 487.394 289.219 458.922 334 448C364.778 440.493 438.227 422.162 466 442C481.677 453.198 478.171 502.499 504 497.333" fill="none" opacity="1" stroke="#f7c25b" stroke-linecap="round" stroke-linejoin="round" stroke-width="10" vectornator:layerName="Curve 15"/>
<path d="M153.333 552C143.752 580.744 175.307 605.106 203.333 601.333C266.778 592.793 325.543 547.475 392 552.667C425.513 555.285 470.864 567.622 501.333 581.333C521.288 590.313 535.804 606.374 558 609.333" fill="none" opacity="1" stroke="#f7c25b" stroke-linecap="round" stroke-linejoin="round" stroke-width="10" vectornator:layerName="Curve 16"/>
<path d="M155.333 649.333C134.58 649.333 155.477 695.869 165.333 702.667C181.599 713.884 209.563 707.081 226.667 702.667C293.39 685.448 360.583 659.534 429.333 652C456.227 649.053 485.158 649.377 487.333 682" fill="none" opacity="1" stroke="#f7c25b" stroke-linecap="round" stroke-linejoin="round" stroke-width="10" vectornator:layerName="Curve 17"/>
<path d="M484 694C483.556 694.889 483.111 695.778 482.667 696.667" fill="none" opacity="1" stroke="#f7c25b" stroke-linecap="round" stroke-linejoin="round" stroke-width="10" vectornator:layerName="Curve 18"/>
<path d="M164 762.667C137.015 800.446 202.345 836.091 232.667 834C312.572 828.489 470.95 726.44 517.333 834.667" fill="none" opacity="1" stroke="#f7c25b" stroke-linecap="round" stroke-linejoin="round" stroke-width="10" vectornator:layerName="Curve 19"/>
<path d="M610.667 461.333C595.715 458.343 616.688 477.935 621.333 480C632.176 484.819 639.665 484.016 652 482.667C682.974 479.279 712.71 473.121 744 471.333C803.79 467.917 862.111 466.931 922 468.667C949.463 469.463 976.875 464.276 1002.67 476" fill="none" opacity="1" stroke="#f7c25b" stroke-linecap="round" stroke-linejoin="round" stroke-width="10" vectornator:layerName="Curve 20"/>
<path d="M601.333 561.333C573.659 589.007 649.461 596.879 662 594.667C746.499 579.755 823.055 544.389 910.667 543.333C940.053 542.979 995.107 548.011 980.667 591.333" fill="none" opacity="1" stroke="#f7c25b" stroke-linecap="round" stroke-linejoin="round" stroke-width="10" vectornator:layerName="Curve 21"/>
<path d="M628 650C615.681 652.464 622.306 670.81 625.333 678C634.889 700.695 647.175 723.933 675.333 721.333C704.952 718.599 733.825 704.953 762 696.667C818.766 679.971 882.32 662.465 941.333 657.333C975.996 654.319 1007.34 656.341 1021.33 691.333" fill="none" opacity="1" stroke="#f7c25b" stroke-linecap="round" stroke-linejoin="round" stroke-width="10" vectornator:layerName="Curve 22"/>
<path d="M614.667 785.333C614.667 839.663 676.878 836 718 836C749.895 836 778.443 832.038 808.667 821.333C873.755 798.281 948.444 744.993 1012 797.333" fill="none" opacity="1" stroke="#f7c25b" stroke-linecap="round" stroke-linejoin="round" stroke-width="10" vectornator:layerName="Curve 23"/>
</g>
</svg>
