<?xml version="1.0" encoding="UTF-8" standalone="no"?>
<!DOCTYPE svg PUBLIC "-//W3C//DTD SVG 1.1//EN" "http://www.w3.org/Graphics/SVG/1.1/DTD/svg11.dtd">
<!-- Created with Vectornator (http://vectornator.io/) -->
<svg height="100%" stroke-miterlimit="10" style="fill-rule:nonzero;clip-rule:evenodd;stroke-linecap:round;stroke-linejoin:round;" version="1.1" viewBox="0 0 1080 1080" width="100%" xml:space="preserve" xmlns="http://www.w3.org/2000/svg" xmlns:vectornator="http://vectornator.io" xmlns:xlink="http://www.w3.org/1999/xlink">
<defs/>
<g id="Layer-1" vectornator:layerName="Layer 1">
<path d="M321.333 215L758.667 215L758.667 865L321.333 865L321.333 215Z" fill="#a8545b" fill-rule="nonzero" opacity="1" stroke="none" vectornator:layerName="Rectangle 1"/>
<path d="M399.333 292.667C400.091 285.401 366.829 285.67 359.333 290.667C358.715 291.079 361.254 297.441 361.333 298C362.19 303.997 362.667 309.841 362.667 316C362.667 324.692 356.938 344.543 360.667 352C361.064 352.796 380.836 343.833 383.333 343.333C387.789 342.442 424.722 341.223 426 338.667C429.225 332.217 424 303.408 424 294.667C424 293.126 424.58 290.58 423.333 289.333C418.281 284.281 397.115 313.945 399.333 292.667Z" fill="none" opacity="1" stroke="#eea22d" stroke-linecap="round" stroke-linejoin="round" stroke-width="10" vectornator:layerName="Curve 1"/>
<path d="M364.667 449.333C364.667 463.613 353.699 514.548 360 524C360.982 525.473 366.904 521.372 368.667 520.667C373.794 518.616 378.563 518.667 384 518.667C387.498 518.667 426.5 516.916 426.667 516.667C432.683 507.643 428.488 483.473 429.333 473.333C429.563 470.581 436.059 450.059 434.667 448.667C424.91 438.91 412.332 453.066 401.333 448.667C397.058 446.957 394.742 442.282 390 441.333C381.896 439.713 383.379 452.757 377.333 440.667" fill="none" opacity="1" stroke="#eea22d" stroke-linecap="round" stroke-linejoin="round" stroke-width="10" vectornator:layerName="Curve 2"/>
<path d="M363.667 584.667C360.418 583.681 350.819 662.819 354 666C355.036 667.036 371.738 655.085 374.667 654.667C392.009 652.189 411.457 655.938 426 648.667C428.088 647.623 421.976 612.167 422.667 607.333C422.976 605.169 436.234 574 426 574C403.913 574 385.124 591.178 363.667 584.667Z" fill="none" opacity="1" stroke="#eea22d" stroke-linecap="round" stroke-linejoin="round" stroke-width="10" vectornator:layerName="Curve 3"/>
<path d="M355.667 746C353.56 745.535 354.157 740.667 352 740.667C351.737 740.667 351.4 756.967 350 764.667C347.083 780.711 344.873 797.406 341.333 813.333C340.666 816.337 336.131 835.464 338.667 838C339.055 838.389 395.014 827.33 398 826.667C404.978 825.116 418.809 835.857 425.333 829.333C430.458 824.209 425.333 797.777 425.333 791.333C425.333 779.334 428.802 743.074 425.333 732.667C425.173 732.186 408.688 735.613 407.333 736C390.716 740.748 370.276 749.227 355.667 746Z" fill="none" opacity="1" stroke="#eea22d" stroke-linecap="round" stroke-linejoin="round" stroke-width="10" vectornator:layerName="Curve 4"/>
<path d="M376.667 314.667C373.341 313.004 380.079 337.889 386.667 328.667C412.523 292.467 439.826 257.131 476 230" fill="none" opacity="1" stroke="#eea22d" stroke-linecap="round" stroke-linejoin="round" stroke-width="10" vectornator:layerName="Curve 5"/>
<path d="M375.333 470C374.238 473.286 377.988 500.836 381.333 500C388.111 498.306 400.157 467.576 403.333 462.667C417.682 440.492 435.445 423.926 457.333 409.333" fill="none" opacity="1" stroke="#eea22d" stroke-linecap="round" stroke-linejoin="round" stroke-width="10" vectornator:layerName="Curve 6"/>
<path d="M376.667 606.667C375.411 606.039 373.353 627.372 375.333 631.333C377.291 635.248 378.709 623.248 380.667 619.333C385.076 610.515 390.9 601.963 396.667 594C410.263 575.224 427.999 560.001 442 541.333" fill="none" opacity="1" stroke="#eea22d" stroke-linecap="round" stroke-linejoin="round" stroke-width="10" vectornator:layerName="Curve 7"/>
<path d="M516 282C499.249 282 509.698 332.151 536.667 318.667C561.646 306.177 581.675 278.057 613.333 283.333C635.732 287.066 631.393 333.455 672 325.333C698.195 320.094 700.837 296.331 719.333 284" fill="none" opacity="1" stroke="#eea22d" stroke-linecap="round" stroke-linejoin="round" stroke-width="10" vectornator:layerName="Curve 8"/>
<path d="M502 456C484.907 467.396 515.666 505.667 536.667 502.667C552.518 500.402 563.519 484.481 574 474C585.7 462.3 610.799 454 626.667 454C639.536 454 646.584 467.284 656.667 473.333C665.787 478.806 675.518 477.934 684.667 482C690.134 484.43 703.063 491.207 707.333 482.667" fill="none" opacity="1" stroke="#eea22d" stroke-linecap="round" stroke-linejoin="round" stroke-width="10" vectornator:layerName="Curve 9"/>
<path d="M502.667 578.667C491.381 601.239 528.961 625.449 548 623.333C575.784 620.246 575.521 596.464 597.333 584C602.301 581.162 607.456 582.869 612.667 582C640.76 577.318 655.324 578.658 676.667 600C682.083 605.416 684.196 611.686 690.667 616" fill="none" opacity="1" stroke="#eea22d" stroke-linecap="round" stroke-linejoin="round" stroke-width="10" vectornator:layerName="Curve 10"/>
<path d="M504 730.667C497.212 730.667 500.905 755.144 503.333 760C512.066 777.465 530.392 790.106 549.333 792C579.533 795.02 575.026 777.838 595.333 763.333C607.28 754.8 657.347 725.206 672.667 731.333C682.867 735.414 688.148 746.518 694.667 754.667C699.043 760.138 711.333 764.196 711.333 772" fill="none" opacity="1" stroke="#eea22d" stroke-linecap="round" stroke-linejoin="round" stroke-width="10" vectornator:layerName="Curve 11"/>
</g>
</svg>
