<?xml version="1.0" encoding="UTF-8"?>
<svg id="uuid-ec4f991f-ed04-4df4-b168-81030d096cef" data-name="Layer 1" xmlns="http://www.w3.org/2000/svg" xmlns:xlink="http://www.w3.org/1999/xlink" viewBox="0 0 484.46 928.08">
  <defs>
    <style>
      .uuid-8c234473-e22c-46cb-a50d-d2d2b321b5a2 {
        fill: #a6a8ab;
        stroke: #231f20;
        stroke-miterlimit: 2.61;
        stroke-width: .5px;
      }

      .uuid-8c234473-e22c-46cb-a50d-d2d2b321b5a2, .uuid-ce9e8e73-8f54-4fb3-bda0-bab5c14ba1c0, .uuid-ebabf4aa-c735-4d96-aadf-e400836cf627, .uuid-0371c390-c034-4d70-a06d-97a9bed9e117, .uuid-b3fe8686-da43-4759-9d87-cfe6bc94435d, .uuid-7e8fbef1-a49f-48b9-a424-55cd626355c2, .uuid-38a08c10-93c5-4fa8-9ee3-8e6f2341cf01, .uuid-32199476-86d6-4b22-b22b-0177b3f41424, .uuid-fcaf2412-0af3-47ab-983b-7b9d4337077c, .uuid-66db028a-9285-4ede-a33b-bff22ff7056f, .uuid-38231b11-96a0-49b3-a031-5bf6bd17ab0f, .uuid-6eb6e88f-7f8a-45bd-902a-a60a4611f57a, .uuid-5407d8a3-2bca-45dd-9217-dd760e5c0112, .uuid-3ad2c2ac-2268-424f-a15e-23aae2d1c285 {
        fill-rule: evenodd;
      }

      .uuid-ce9e8e73-8f54-4fb3-bda0-bab5c14ba1c0 {
        fill: url(#uuid-749d055c-a444-4772-b764-3c24b1f4359b);
      }

      .uuid-ce9e8e73-8f54-4fb3-bda0-bab5c14ba1c0, .uuid-ebabf4aa-c735-4d96-aadf-e400836cf627, .uuid-0371c390-c034-4d70-a06d-97a9bed9e117, .uuid-b3fe8686-da43-4759-9d87-cfe6bc94435d, .uuid-7e8fbef1-a49f-48b9-a424-55cd626355c2, .uuid-38a08c10-93c5-4fa8-9ee3-8e6f2341cf01, .uuid-32199476-86d6-4b22-b22b-0177b3f41424, .uuid-fcaf2412-0af3-47ab-983b-7b9d4337077c, .uuid-66db028a-9285-4ede-a33b-bff22ff7056f, .uuid-38231b11-96a0-49b3-a031-5bf6bd17ab0f, .uuid-6eb6e88f-7f8a-45bd-902a-a60a4611f57a, .uuid-5407d8a3-2bca-45dd-9217-dd760e5c0112, .uuid-3ad2c2ac-2268-424f-a15e-23aae2d1c285 {
        stroke-width: 0px;
      }

      .uuid-ebabf4aa-c735-4d96-aadf-e400836cf627 {
        fill: url(#uuid-059b29da-71eb-4620-ab10-db88fcd63fa6);
      }

      .uuid-0371c390-c034-4d70-a06d-97a9bed9e117 {
        fill: url(#uuid-7a30ef3e-9cad-4d79-b311-a31ba3105f2a);
      }

      .uuid-b3fe8686-da43-4759-9d87-cfe6bc94435d {
        fill: #6c8bc6;
      }

      .uuid-7e8fbef1-a49f-48b9-a424-55cd626355c2 {
        fill: #d0d2d3;
      }

      .uuid-38a08c10-93c5-4fa8-9ee3-8e6f2341cf01 {
        fill: #fff;
      }

      .uuid-32199476-86d6-4b22-b22b-0177b3f41424 {
        fill: url(#uuid-9fc54ba6-bf97-4de3-8bb3-e29379c5845e);
      }

      .uuid-fcaf2412-0af3-47ab-983b-7b9d4337077c {
        fill: url(#uuid-5650fd6b-b65c-49d8-9e88-be6d150afe7e);
      }

      .uuid-66db028a-9285-4ede-a33b-bff22ff7056f {
        fill: #fdcf9d;
      }

      .uuid-38231b11-96a0-49b3-a031-5bf6bd17ab0f {
        fill: url(#uuid-1766f436-6c5c-4162-9213-3855fd204e7d);
      }

      .uuid-6eb6e88f-7f8a-45bd-902a-a60a4611f57a {
        fill: #231f20;
      }

      .uuid-5407d8a3-2bca-45dd-9217-dd760e5c0112 {
        fill: url(#uuid-cca977f5-c52a-4385-81b0-7a946f467cd9);
      }

      .uuid-3ad2c2ac-2268-424f-a15e-23aae2d1c285 {
        fill: #e41e2a;
      }
    </style>
    <linearGradient id="uuid-5650fd6b-b65c-49d8-9e88-be6d150afe7e" data-name="GradientFill 1" x1="212.07" y1="322.9" x2="262.96" y2="322.9" gradientUnits="userSpaceOnUse">
      <stop offset="0" stop-color="#fff"/>
      <stop offset="1" stop-color="#fff"/>
    </linearGradient>
    <linearGradient id="uuid-059b29da-71eb-4620-ab10-db88fcd63fa6" data-name="GradientFill 1" x1="177.97" y1="124.22" x2="437.61" y2="124.22" xlink:href="#uuid-5650fd6b-b65c-49d8-9e88-be6d150afe7e"/>
    <linearGradient id="uuid-7a30ef3e-9cad-4d79-b311-a31ba3105f2a" data-name="GradientFill 2" x1="371.98" y1="377.42" x2="474.53" y2="377.42" gradientUnits="userSpaceOnUse">
      <stop offset="0" stop-color="#ec1c24"/>
      <stop offset="1" stop-color="#ec1c24"/>
    </linearGradient>
    <linearGradient id="uuid-9fc54ba6-bf97-4de3-8bb3-e29379c5845e" data-name="GradientFill 2" x1="334.5" y1="339.05" x2="496.83" y2="339.05" xlink:href="#uuid-7a30ef3e-9cad-4d79-b311-a31ba3105f2a"/>
    <linearGradient id="uuid-749d055c-a444-4772-b764-3c24b1f4359b" data-name="GradientFill 1" x1="123.83" y1="486.43" x2="418.74" y2="486.43" xlink:href="#uuid-5650fd6b-b65c-49d8-9e88-be6d150afe7e"/>
    <linearGradient id="uuid-1766f436-6c5c-4162-9213-3855fd204e7d" data-name="GradientFill 1" x1="58.52" y1="454.06" x2="149.56" y2="454.06" xlink:href="#uuid-5650fd6b-b65c-49d8-9e88-be6d150afe7e"/>
    <linearGradient id="uuid-cca977f5-c52a-4385-81b0-7a946f467cd9" data-name="GradientFill 1" x1="-290.5" y1="612.46" x2="812.64" y2="612.46" xlink:href="#uuid-5650fd6b-b65c-49d8-9e88-be6d150afe7e"/>
  </defs>
  <path class="uuid-6eb6e88f-7f8a-45bd-902a-a60a4611f57a" d="m177.55,45.37c37-71.87,199.13-52.96,238.12,18.88,23.93,44.1,56.24,119.24-9.25,190.27,2.65,35.08-21.97,16.99-11.87,67.12,22.52-27.9,69.65-10.66,77.22-3.34-30.47,9.45-30.99,9.2-33.69,33.48,10.5,4.47,27.74,6.68,46.38,8.24-2.31,11.66-46.94,18.04-56.22,44.65,3.15,28.55-11.15,84.34-24.36,111.61,4.64,46.79,30.84,117.14,11.25,161.82-4.68,10.67-6.76,65.85-6.15,116.89.31,25.52,24.32,35.89-1.89,51.03-.94,18.86,23.56,19.77,24.53,65.56.27,12.75-62.09,36.29-98.82-15.78-8.33-11.81-11.59-57.93-21.22-75.26-19.26-34.66-31.95-79.52-50.06-78.6-36.22,1.83.27,128.71-33.93,129.2-1.66.02-23.9,1.84-50.05,2.99v-489.32c5.27-1.72,10.96-4.93,15.11-8.8-7.23-15.15,18.63-19.08,19.94-19.08,2.9,0-14.57-9.13-21.65-23.88-4.92-1.2-9.19-1.16-13.4-1.06v-49.17c6.59-4.9,14.66-11.55,24.7-20.37,20.28-18.73,22.46-55.88,19.39-87.32-7.63-25.72-13.36-39.14-25.67-69-8.33-3.71-14.33-8.24-18.41-13.33v-47.45Zm-1.72,3.6c.54-1.23,1.11-2.43,1.72-3.6v47.45c-9.98-12.45-8.54-28.29-1.72-43.84h0Zm1.72,825.16c-34.96,1.54-76.91,1.9-86.03-4.78-15.94-11.67,58.19-43.08,52.09-51.81-12.22-17.47,17.28-15.59,4.29-38.61-25.98-46.04-40.33-95.08-45.31-105.61-22.13-11.23-90.51-25.91-100.47-64.07-18.39-70.46,88.55-84.73,115.46-94.94,6.1-9.76-59.55,6.82-66.53-27.45-10.83-53.09,33.85-62.91,26.99-118.53-.9-7.29,17.67-26.46,32.82-29.37-4.92-13.32-6.6-31.89.88-39.27,12.91-12.74,22.83-4.19,25.11-19,11.63,10.41,10.54,24.58,40.7,2.14v49.17c-9.7.22-19.07.72-35.37-12.99,2.29,22.93,43.16,25.25,22.68,65.64,2.47,2.12,7.37,1.9,12.69.16v489.32Z"/>
  <path class="uuid-66db028a-9285-4ede-a33b-bff22ff7056f" d="m314.78,291.9c8.56,5.2,18.4,10.58,28.95,10.49,20.84-.17,10.28-10.36,12.32-20.26,23.6,19.81,28.4,44.12-12.92,55.14-10.91,2.42-20.29,3.59-28.35,3.82v25.95c31.05,7.75,72.46-14.77,71.93-56.62-.08-6.45-2-14.48-2.42-20.93-5.35-1.7-8.25,8.15-14.59-4.31-2.23-4.39,1.94,3.43,6.75,2.38,21.18-4.64,27.11-35.95,10.25-47.02-12.23-8.03-25.44-6.51-22.73,11.67-3.25-.44-1.83,1.07-7.15-2.84,3.73-17.78-4.24-33.66-5.15-36.74-3.92-13.23-11.13-12.94-17.29-14.27-7.53-.78-13.68-1.04-19.61-.35v28.32c14.73,9.16,25.63,27.62,25.63,33.49,0,6.44-12.6,8.76-25.63,9.08v23.01h0Zm0-106.55h.06s-.06-.02-.06-.02v.02Zm-87.13,30.96c-.43,2.06-.87,4.09-1.33,6.11v14.52c4.86-14.05,19.41-18.02,28.71-.73,6.69,12.43,3.82,25.57,3.82,26.77,0,2.41-2.41,6.35-9.69,8.95-8-.35-16.25,2.04-22.84,5.8v28.92c11.54,1,29.52-6.02,32.85-8.56,1.07-.82,22.16,3.98,26.56-.79,4.4-4.77-6.7-21.09-4.23-20.57,3,.63,5.12,2.51,7.55,8.34,5.57-6.41,14.56.05,25.72,6.83v-23.01c-3.6.09-7.23.03-10.63-.15-8.2-.41-14.87-7.85-14.87-16.06s-1.62-30.68,6.55-31.51c6.62-.68,13.09,1.5,18.95,5.15v-28.32c-7.32.85-14.28,3.15-23.03,7.7,1.54-10.39,6.86-19.21,23.03-20.36v-.02c-23.08-3.92-49.59-4.42-71.51,5.69,4.53,2.55,12.7,6.62,12.7,12.19-19.63-1.9-18.81-.48-28.31,13.1h0Zm87.13,124.79c-17.61.5-28.91-3.48-36.01-8.76-8.96-6.66-22.81-1.85-37.61-.92-6.89.44-11.55-.24-14.84-1.51v14.09c9.62,7.57,14.18,2.73,9.62,7.29-1.9,1.9-7.05,1.35-8.69-.27-.31-.31-.62-.63-.93-.96v4.07c.55.2,1.11.4,1.69.6,11.48,4,20.26,19.39,34.74,19.82,20.66.61,41.11-10.88,49.19-8.32.93.3,1.88.56,2.83.8v-25.95Zm-88.46-118.67c-3.36,14.68-7.77,28.44-15.12,42.21-3.28,6.16-11.11,6.82-17.08,13.64,5.71-2.2,15.98.92,20.09,6.45,3.18-3.17,6.13-4.92,11.17-9.07-.77-9.45-1.12-20.34-.67-30.01.15-3.19.71-6.11,1.61-8.7v-14.52h0Zm0,55.31v28.92c-2.38-.2-4.48-.75-6.12-1.74-12.95-7.81-6.45-20,6.12-27.18h0Zm0,52.18c-5.41-2.09-7.11-5.77-8.93-8.75-7.55,4.41-13.92,5.83-22.64,7.28,9.78,12.77,10.28,18.03,31.57,25.7v-4.07c-8.12-8.65-13.87-22.36-10.34-17.39,3.86,5.42,7.34,8.98,10.34,11.33v-14.09Z"/>
  <path class="uuid-6eb6e88f-7f8a-45bd-902a-a60a4611f57a" d="m213.03,286.76c-9.51-9.9-23.35-8.82-35.66,3.17-37.56,36.6-36.81-12.27-37.66-.93-1.2,15.97,10.05,31.87,16.95,34.92,13.79,6.1,39.57,4.57,57.56-4.28,21.78-10.72,34.47-5.97,72.5,14.26,8.42,4.48,60.46,11.12,82.4-15.45,7.88-9.55-3.17-24.17-10.7-31.3-2.3-2.18,12.45,27.22-27.33,15.85-16.18-4.63-34.38-24.99-40.12-14.54,5.75,16.74-16.49,17.36-30.79,13.35-15.04,8.46-34.32,8.76-43.32,4.86-6.49-2.81-5.61-15.16-3.82-19.92Z"/>
  <path class="uuid-fcaf2412-0af3-47ab-983b-7b9d4337077c" d="m220.47,320.3c16.42-8.29,34.26.29,47.09,5.93-16.81.6-39.55,8.5-47.09-5.93Z"/>
  <path class="uuid-38a08c10-93c5-4fa8-9ee3-8e6f2341cf01" d="m230.35,193.41c17.47-17.47,71.02-16.47,95.21-11.27,20.31,4.37,25.35,6.2,40.56,21.41,19.16,19.15.56-2.82-5.07-11.27-9.02-13.52-11.26-33.26-28.17-38.31-26.47-7.91-68.31-9.76-91.83,7.89-14.78,11.09-10.14,11.27-10.7,31.55Z"/>
  <path class="uuid-3ad2c2ac-2268-424f-a15e-23aae2d1c285" d="m303.03,371.44c-11.84,4.51-34.95,10.26-47.89,8.45-11.28-1.57-23.03-4.95-34.37,2.25-1.43.91-3.23-8.56,21.97-6.76,8.43.6-.56-10.14-27.04-10.14-22.54,0-17.38,22.43-3.38,33.8,4.03,3.28,12.07,10.37,18.81,9.61,33.26-3.75,18.36,1.43-5.11,5.03-5.57.85-12.61-10.29-16.56-10.29-2.25,0-10.62,18.86-7.02,31.77,2.42,8.68,18.32,43.87,29.03,33.17,7.32-7.32,14.08-25.92,21.97-30.99,17.47-11.27,38.87-24.79,59.15-29.3,14.08-2.82,42.93,1.84,54.08-6.76,19.72-15.21-5.76-15.86-.56-23.66,4.53-6.8,2.98-18.18-3.38-13.52-8.45,6.2-36.06,14.08-59.72,7.32Z"/>
  <path class="uuid-38a08c10-93c5-4fa8-9ee3-8e6f2341cf01" d="m298.8,225.04c5.19-.52,10.8,1.7,16.05,5.24-14.55,5.98-18.28,25-7.54,36.09-7.6-.33-14.57-5.3-14.57-12.93s-1.85-28.14,6.06-28.39Z"/>
  <path class="uuid-b3fe8686-da43-4759-9d87-cfe6bc94435d" d="m318.7,233.46c1.55,0,10.86,8.25,13.73,14.22-9.42-7.14-18.36-5.27-18.36,7.14,0,5.98,3.69,8.25,8.79,10.61-10.02.45-18.7-4.78-18.7-14.83s7.96-16.99,14.55-17.14Z"/>
  <path class="uuid-38a08c10-93c5-4fa8-9ee3-8e6f2341cf01" d="m239.1,226.83c4.67-.26,9.56,3.7,13.12,9.54-19.07-2.19-28.03,22.76-12.94,33.56-3.59.47-7.33,1.39-10.6,3.67-2.01-6.74-1.92-9.5-2.24-21.7-.32-12.2,3.93-24.59,12.68-25.07Z"/>
  <path class="uuid-b3fe8686-da43-4759-9d87-cfe6bc94435d" d="m248.4,238.48c5.53,0,3.55.27,5.37.97-13.87,4.11-15.07,19.63-4.65,29.16-8.36-.7-14.84-5.02-14.84-13.79s8.58-16.34,14.11-16.34Z"/>
  <path class="uuid-6eb6e88f-7f8a-45bd-902a-a60a4611f57a" d="m237.27,192.28c8.04,0,21.33,9.99,14.08,9.07-13.9-1.75-15.72.12-24.87,12.61,0-2.71,2.76-21.68,10.8-21.68Z"/>
  <path class="uuid-6eb6e88f-7f8a-45bd-902a-a60a4611f57a" d="m326.41,185.7c8.04,0,23.58,12.4,16.33,11.49-13.9-1.75-35.93-3.34-48.02,5.01,1.9-13.77,23.66-16.5,31.7-16.5Z"/>
  <path class="uuid-6eb6e88f-7f8a-45bd-902a-a60a4611f57a" d="m373.27,213.9c2.04,2.54,14.42,22.46,10.66,21.02-23.81-9.11-22.3,11.75-21.98,15.09-1.86-.12-2.31,2.06-2.31-2.45,0-19.63-3.25-27.32-7.38-43.84-.14-.55-5.71-9.68-2.5-9.41,1.31.11,22.59,18.44,23.5,19.58Z"/>
  <path class="uuid-ebabf4aa-c735-4d96-aadf-e400836cf627" d="m227.79,163.45c-6.55-21.11-28.07-49.43-22.69-71.35,6.6-26.94,7.86-33.69-5.1,1.38-2.08,5.63-38.99-6.4-12.5-45.53,39.73-58.69,117.2-42.22,171.8-22.57,64.79,23.3,103.94,146.2,58.97,203.1-26.37,33.36-30.52-6.91-47.8-30.34-15.47-20.97-31.11-62.25-44.91-86.3-11.68-20.36-20.87-50.94-50.7-46.43,21.6,2.76,33.24,16.66,45.95,46.94,15.72,37.44,27.33,36.5-17.34,30.06-13.82-1.99-60.09,3.29-75.67,21.03Z"/>
  <path class="uuid-66db028a-9285-4ede-a33b-bff22ff7056f" d="m107.57,347.97c-7.17,1.3-21.7,15.93-23.17,23.72-3.09,16.32,8.6,52.45,21.99,61.42,16.17,10.83,14.08-8.15,31.8-8.12,14.32.02,18.22-4.15,7.06-11.6-7.27-4.85-8.69-7.49-29.15,3.48-3.63,1.95-5.14-3.39-1.14-5.58,21.4-11.71,33.39.28,33.39-8.84,0-12.38-24.56-14.76-39.88-8.61,10.75-16.08,37.14,4.47,33.92-9.77-2.65-11.71-22.88-12.71-30.82-10.83-3.35.79-15.7,1.54-7.64-1.06,24.97-8.05,36.82,7.56,37.21-2.79.55-14.82-23.78-23.37-33.55-21.42Z"/>
  <path class="uuid-66db028a-9285-4ede-a33b-bff22ff7056f" d="m159.77,423.11c30.15-28.75-13.21-27.26.37-48.23,15.23-23.51-19.13-31.96-23.55-57.39-.79-4.54,3.91-21.5-4.56-21.5-18.89,0-22.88,22.18-18.24,36.48,3.18,9.8,14.14,17.53,22.66,19.24,4.52.9,13.91,15.74,7.35,24.11-4.91,6.26,9.41,2.38,2.85,15.63-2.6,5.26,12.63,2.22,1.79,19.2-.89,1.4,10.04,12.46,11.34,12.46Z"/>
  <path class="uuid-0371c390-c034-4d70-a06d-97a9bed9e117" d="m371.98,379.38c11.79-16.13,36.01-26.14,55.84-20.48,10.57,3.02,33.51,4.34,45.29,4.34,7.45,0-16.82,9.02-19.85,9.93-15.6,4.68-19.85,22.98-34.13,24.2-7.44.64-17.97-.71-24.82-2.48-6.2-1.6-16.16-2.96-15.1-6.7,4.59-16.29,28.54-15.46,26.98-16.99-1.56-1.52-15.37-4.32-34.22,8.18Z"/>
  <path class="uuid-32199476-86d6-4b22-b22b-0177b3f41424" d="m373.84,366.35c11.79-21.72,27.3-54.6,57.7-54.6,5.59,0,21.04,3.21,25.44,5.58,3.67,1.97-13.65,4.34-15.51,6.2-5.58,5.58-7,16.08-9.31,23.58-2.66,8.63-14.85,3.92-24.2,5.58-8.04,1.43-27.3,9.93-34.13,13.65Z"/>
  <path class="uuid-7e8fbef1-a49f-48b9-a424-55cd626355c2" d="m167.13,521.02c87.29.12,158.41,32.67,158.41,72.56s-71.11,72.44-158.41,72.56v-18.35c120.05-2.38,155.18-47.52,145.82-68.04-16.67-36.54-82.54-54.6-145.82-54.39v-4.35Zm-.47,0h.47v4.35h-.38c-63.39.29-124.08,18.92-141.18,41.66-18.3,24.32,2.73,81.72,134.93,80.86,2.24-.01,4.45-.05,6.63-.09v18.35h-.47c-87.5,0-158.87-32.6-158.87-72.56s71.37-72.57,158.87-72.57Z"/>
  <path class="uuid-ce9e8e73-8f54-4fb3-bda0-bab5c14ba1c0" d="m414.88,404.62c19.86,55-41.36,156.16-82.69,182-3.03-20.76-24.16-38.25-42.68-48.2,21.14-39.15,34.19-60.56,63.18-81.11-38.79,13.36-67.44,72.44-70.82,76.78-33.44-10.06-89.54-21.79-158.04-16.37,1.06-40.39,25.2-68.62,31.42-86.19,15.44,1.41,22.23-27.09,23.39-37.46,19.26-11.92,14.46-10.27,24.59,5.52-5.05,15.06-12.58,36.82-2.28,48,26.56,51.11,34.4,24.58,50.91-2.51,5.15-8.45,27.41-17.06,53.86-29.52,13.41-6.32,58.91.45,73.46-18.47,15.63,6.02,27.94,6.88,35.7,7.52Z"/>
  <path class="uuid-38231b11-96a0-49b3-a031-5bf6bd17ab0f" d="m123.18,499c-29.08,8.55-71.85,5.76-63.62-37.9,2.76-14.63,14.57-42.87,22.23-55.84,6.98,17.31,21.14,39.58,30.9,39.58,8.13,0,9.22-8.67,16.81-8.67,8.13,0,1.1,21.15,0,24.94-2.69,9.22-10.18,17.98-15.18,25.48-2.59,3.88,18.23-2.33,23.31-50.42.57-5.42,7.05-4.35,11.93-5.42-9.35,20.54-24.43,52.7-26.38,68.26Z"/>
  <path class="uuid-5407d8a3-2bca-45dd-9217-dd760e5c0112" d="m395.35,523.42c9.17,32.08,11.95,77.11,15.73,110.64,8.44,74.94-103.88,67.21-154.29,67.21-38.19,0-110.12-12.03-146.18-30.13,70.87,5.17,196.26,5.3,225.89-77.15,23.75-15.97,50.14-56.05,58.86-70.58Z"/>
  <path class="uuid-8c234473-e22c-46cb-a50d-d2d2b321b5a2" d="m165.61,643.23c78.06,0,141.72-25.85,141.72-57.55s-63.66-57.55-141.72-57.55-141.72,25.85-141.72,57.55,63.66,57.55,141.72,57.55Z"/>
</svg>